<svg width="28" height="28" viewBox="0 0 28 28" fill="none" xmlns="http://www.w3.org/2000/svg">
<path fill-rule="evenodd" clip-rule="evenodd" d="M0 8.7907C0 3.93573 3.93573 0 8.7907 0H19.2093C24.0642 0 28 3.93573 28 8.7907V19.2093C28 24.0642 24.0642 28 19.2093 28H8.7907C3.93573 28 0 24.0642 0 19.2093V8.7907ZM8.7907 1.95349C5.01462 1.95349 1.95349 5.01462 1.95349 8.7907V19.2093C1.95349 22.9854 5.01462 26.0465 8.7907 26.0465H19.2093C22.9854 26.0465 26.0465 22.9854 26.0465 19.2093V8.7907C26.0465 5.01462 22.9854 1.95349 19.2093 1.95349H8.7907Z" fill="#7D3707"/>
</svg>
