<svg width="48" height="48" viewBox="0 0 48 48" fill="none" xmlns="http://www.w3.org/2000/svg">
<rect width="48" height="48" fill="#C08C69"/>
<path d="M24 23.3417C25.7017 23.3417 27.3338 22.6389 28.5371 21.3879C29.7404 20.1368 30.4165 18.4401 30.4165 16.6709C30.4165 14.9016 29.7404 13.2049 28.5371 11.9538C27.3338 10.7028 25.7017 10 24 10C22.2983 10 20.6662 10.7028 19.4629 11.9538C18.2596 13.2049 17.5835 14.9016 17.5835 16.6709C17.5835 18.4401 18.2596 20.1368 19.4629 21.3879C20.6662 22.6389 22.2983 23.3417 24 23.3417ZM24 26.2726C15.4689 26.2726 10 31.1671 10 33.5501V38H38V33.5501C38 30.6682 32.8225 26.2726 24 26.2726Z" fill="white"/>
</svg>
